<?xml version="1.0" encoding="UTF-8" standalone="no"?><!DOCTYPE svg PUBLIC "-//W3C//DTD SVG 1.1//EN" "http://www.w3.org/Graphics/SVG/1.1/DTD/svg11.dtd"><svg width="100%" height="100%" viewBox="0 0 939 301" version="1.1" xmlns="http://www.w3.org/2000/svg" xmlns:xlink="http://www.w3.org/1999/xlink" xml:space="preserve" xmlns:serif="http://www.serif.com/" style="fill-rule:evenodd;clip-rule:evenodd;stroke-linejoin:round;stroke-miterlimit:2;"><rect id="Logo-Niuro-Header" serif:id="Logo Niuro Header" x="0" y="0" width="938.8" height="300.2" style="fill:none;"/><path d="M884.2,214.2c-61.6,44.3 -131.6,-19 -96.6,-80c23.9,-41.7 115.1,-42.8 117.4,35c0.8,25.7 -17.8,42.4 -20.8,45l-71.3,-73c-28.9,37.5 15.7,85.6 51.8,58c25.8,-19.7 17.7,-71.1 -23.6,-71.8c-16.4,-0.3 -26.6,11.9 -28.2,13.8l71.3,73Z" style="fill:#141241;"/><path d="M438.5,134.9c-16.3,-15.2 -36,-8.3 -45.3,4.7c-7.7,10.8 -2.2,75.7 -4.8,84.2c-1.6,5.2 -22.2,3.3 -23.7,1.6c-2.4,-2.7 -2.2,-78.7 -1.5,-81.2c14.3,-48.6 70.5,-42.4 89.4,-27.7c22.8,17.8 19.6,31.6 19.9,105c0,6.4 -7.8,6.1 -20.2,5.5c-4.3,-0.2 -4.4,-1.1 -4.5,-5.5c-1.2,-59.2 3.4,-72.7 -9.3,-86.6Z" style="fill:#141241;"/><path d="M660.5,216.3c-36.6,26.6 -89.7,9.7 -91.1,-36.6c-0.2,-5.6 -2,-67.2 0.6,-70.4c1.2,-1.5 21.8,-3.4 23.9,1.6c1.2,3 -0.6,73.1 2.1,79.5c1.2,2.9 11.5,23 36.1,16.5c17.4,-4.6 19,-18.7 19.3,-20.9c3.3,-28.5 -1,-76.1 3.5,-77.8c0.3,-0.1 20.6,-2 22.3,1c0.4,0.6 2.2,72.9 -2,84.9c-0.7,2 -4.6,13.2 -14.6,22.2Z" style="fill:#141241;"/><path d="M720.8,122c1.3,-1.1 1.3,-0.9 2.5,-1.9c0.6,-0.5 0.4,-0.5 0.9,-1c12.7,-10.5 35.6,-12.2 37.4,-10.6c1.8,1.5 1.7,13.4 1.7,14.5c-0.1,7.1 -3.1,5.1 -9.8,6.9c-1.3,0.3 -10,2.7 -14.1,8.3c-10,13.4 -3.8,68.1 -5.5,85.1c-0.5,4.6 -14.6,3.8 -20.2,3.5c-6.7,-0.3 -4.6,-13 -4.6,-20.2c0.4,-67 -1.5,-68.8 11.7,-84.8Z" style="fill:#141241;"/><path d="M525.5,107.5c4.9,0.8 6.8,-1.2 7.5,3.3c0,0.2 0,15.3 0,16.6c-0,94.9 0.1,95 -0.4,96.4c-1.7,5.7 -22.2,3.3 -23.4,1.4c-1.9,-2.7 -0.5,-114.1 -0.4,-114.5c0.9,-3.8 13.1,-3.1 16.6,-3.2Z" style="fill:#141241;"/><circle cx="522.6" cy="76" r="14.3" style="fill:#151644;"/><path d="M56.9,51.2c1.5,-0.9 1.4,-0.9 3,-1.8c0.9,-0.5 64.1,-38.1 64.2,-38.1c1,-0.5 1.2,-0.7 11.3,4.1c20.8,10 20.9,10 21,10c1.8,0.1 29.9,-15 31.8,-14.5c1.7,0.5 1.6,0.7 19.6,11.5c8.3,5 47.9,28.2 48.7,29c1.1,1.2 0.6,24.6 0.9,36.6c0.1,2.1 1.5,2 13.1,8.6c12,6.7 22,11.6 22.6,13.1c0.3,0.7 0.4,48.9 0.4,53.2c0.1,26.4 0.1,26.4 -0.1,27c-0.4,1.1 -32.4,20.2 -34.4,21.7c-1.7,1.2 -1.2,2.4 -1.7,20.1c-0.4,12.7 0.4,13.5 -2.3,15.1c-3.7,2.2 -41.7,24.8 -46.9,27.8c-19.8,11.3 -20,11.7 -21.4,11.2c-2.3,-0.9 -5.5,-2.1 -27.5,-13.7c-3.6,-1.9 -3.8,-0.8 -7.4,1.1c-25.7,13.2 -25.6,13.4 -26.4,13.4c-1,-0 -68.2,-40.2 -68.3,-40.4c-1.7,-1.6 -0.5,-32.3 -2,-33.8c-0.8,-0.8 -19.5,-12.2 -21.2,-13.2c-13.7,-8.3 -13.9,-8.5 -14.1,-9.8c-0,-0.2 0.4,-75.5 0.5,-78.9c0,-2.2 2.8,-2.8 17.3,-11c2.7,-1.5 14.8,-8.2 16.1,-8.9c2.6,-1.4 1.9,-3.7 2,-8.5c0.6,-28.3 0.2,-28.5 1.2,-30.7l15.5,158.5c-1.1,2.3 -0.6,23.2 0.1,25.4c0.6,2 1.2,1.6 49.6,30.8c2.9,1.8 3.1,2.7 6.1,1.1c3.3,-1.7 6.6,-3.5 9.9,-5.2c9,-4.7 9.3,-4.8 9.3,-6.6c0.1,-7.1 1,-87.6 0.3,-89.1c-1.1,-2.5 -19.7,4.4 -24.8,-4.1c-4.8,-7.8 -0.7,-20.9 13.9,-16.6c1.4,0.4 10.6,2.2 11,-0c0,-0.2 0,-43.6 0,-103.9c0,-2.4 -0.7,-2.4 -11.6,-7.7c-9.3,-4.5 -9.7,-4.9 -12.4,-3.4c-8.1,4.6 -49.9,29.4 -51,30.7c-1.3,1.5 -0.6,29.7 -0.3,30.4c1.2,2.8 14.6,4.9 18.1,9.6c7.8,10.3 -5.7,24.1 -16.7,14.7c-3.3,-2.9 -13.6,-9.8 -14.7,-9.7c-0.4,0 -22.6,11.8 -23,12.9c-0.2,0.6 -0.7,26.3 -0.4,26.9c1.2,2 11.7,-0.7 12.7,-1c11.9,-3.1 19.9,11.9 9.3,19.8c-6.1,4.6 -22.2,-1.4 -22.1,2.2c0.1,13.6 0,13.8 1,14.5c0.6,0.5 18,11.6 20.5,12.7c4.8,2.1 18.4,-11.2 22.3,-11.9c11.9,-2.3 19.6,14.2 7.3,20.9c-1.7,0.9 -6.1,1.8 -7.9,2.5c-3.6,1.5 -3.3,1.8 -6.5,4.1l-15.5,-158.5l166.6,134.2c0.6,-0.5 4.4,-4.2 9.1,-3.5c4.6,0.7 18.6,12.7 21.6,12.8c1.8,0.1 22.3,-13.1 22.8,-13.8c0.5,-0.7 0.7,-14.5 0.6,-14.7c-0.6,-1.4 -10.5,0.2 -16,0.1c-12.9,-0.4 -13.7,-14.6 -7.2,-19.4c6.1,-4.6 12.9,-1.3 13.4,-1.2c2.5,0.8 9.2,1 9.8,0.1c0.2,-0.4 -0.1,-26.1 -0.5,-26.7c-1,-1.4 -1.2,-1.1 -18,-10.4c-3.8,-2.1 -4,-3.6 -7.7,-1.4c-13.8,8.3 -12.6,10.5 -17.4,11.2c-11.2,1.6 -14.4,-7.1 -13.5,-12.3c1.9,-10.9 8.7,-7.1 18.8,-13.7c1.8,-1.2 1.3,-1.7 1.1,-24c-0.1,-5.7 1.8,-7 -3.1,-9.8c-10.2,-5.9 -49.1,-29.2 -49.7,-29.4c-1.5,-0.4 -21.4,9.5 -21.7,10.1c-0.4,0.9 -0.2,67.5 -0.2,81.7c0,24.5 -0.2,25.2 1,25.3c7.7,0.8 14.1,-3.8 19.4,-0.8c5.5,3.1 6.5,6.6 5.9,11.9c-0.5,4.2 -5.5,8.8 -7.2,8.8c-18.2,-0.2 -19.1,-0.9 -19.3,0.7c-0.1,1.1 0.4,68.8 0.4,74.8c0.1,14.4 -0.4,15.1 1.9,16.3c13.5,7.1 18.7,10.2 20.9,9.1c0.9,-0.4 49.7,-29.4 50.7,-30.1c0.9,-0.6 0.9,-0.8 1,-12.9c0.1,-14.3 0.5,-14.5 -0.4,-15.4c-3,-3 -9.1,-4.2 -10,-4.3c-7.4,-1.5 -13.9,-10.8 -6.4,-19l-166.6,-134.2Z" style="fill:#ffd067;"/><path d="M99.4,62c8,-7.3 16,-0.8 17.8,3.7c1.2,3.2 0.6,3.8 5.9,7.7c4.1,3 3.4,3.6 3.4,6.4c0,3.3 0.3,39.9 0,41.1c-0.4,1.7 -22.8,17 -23.4,18.2c-0.7,1.3 -0.2,27 -0.2,27c0.5,1.5 21.4,10.4 23,11.6c0.9,0.7 0.7,0.9 0.7,27.5c0,17.8 0.3,18.2 -1.5,20c-10.8,10.4 -7.8,14.1 -15.3,16.1c-14.8,4 -19.4,-18.1 -5.3,-21.4c4,-0.9 5,-1.1 5.4,-8c0.2,-4.4 0.1,-22.7 0.1,-22.9c-0.5,-2.5 -22.4,-10.5 -23.3,-12.9c-0.1,-0.2 -0.6,-43.4 -0.6,-43.8c0.2,-1.7 0.6,-1.6 16.7,-13.2c6.4,-4.6 7.1,-4.5 7.1,-7.7c0.2,-27.2 -0.1,-27.5 -1.5,-28.8c-1.5,-1.4 -11.5,-3.3 -12.1,-10.3c-0.7,-8 1.7,-9.1 3.2,-10.5Z" style="fill:#ffd067;"/><path d="M191.7,72.1c3,-3 2.6,-3.3 4.5,-7c3.3,-6.3 12,-8.1 16.7,-4c9.7,8.4 1.3,18.6 -3.2,19.7c-0.6,0.1 -5.5,1.3 -6.8,3.8c-0.6,1.2 -0.3,28.2 -0.2,28.4c0.4,1.4 21.7,16.1 23.1,17.5c0.7,0.7 0.6,0.9 0.6,34.4c0,11.2 0.6,11.9 -2,13.2c-20,9.8 -21.3,9.2 -21.3,11.7c-0.8,28.1 -0.1,29.4 3.2,29.9c1.2,0.2 9.9,1.3 11,9.9c1.4,11.5 -15.3,18.4 -21.5,5.3c-3.4,-7.2 -7.2,-8.5 -8.7,-10.9c-0.6,-1 -0.4,-45 -0.1,-45.6c0.6,-1.4 22.1,-10.5 23.3,-11.7c1,-1.1 0.4,-24.1 0.4,-26.2c-0,-0.9 -0,-1.1 -7.2,-6.5c-15.4,-11.5 -16.6,-11.8 -16.7,-13.7c-0,-0.1 -0,-42.6 0,-43.2c0,-1.8 0.8,-1.4 5.1,-5.1Z" style="fill:#ffd067;"/></svg>